<svg width="1026" height="373" viewBox="0 0 1026 373" fill="none" xmlns="http://www.w3.org/2000/svg">
<path d="M343.575 197.805V304.806H330.605V256.656H272.565V304.806H259.596V197.805H272.565V244.497H330.605V197.805H343.575Z" fill="white"/>
<path d="M444.348 260.061C444.348 263.087 444.132 266.113 443.7 269.139H382.58C383.336 277.354 386.038 283.731 390.686 288.27C395.441 292.809 401.548 295.079 409.006 295.079C414.95 295.079 419.868 294.052 423.759 291.999C427.758 289.945 430.46 286.973 431.865 283.082L442.727 288.756C439.485 294.485 435.161 298.862 429.757 301.888C424.353 304.915 417.436 306.428 409.006 306.428C396.792 306.428 387.173 302.699 380.148 295.241C373.231 287.784 369.772 277.462 369.772 264.276C369.772 251.09 373.068 240.768 379.661 233.31C386.362 225.853 395.82 222.124 408.033 222.124C415.599 222.124 422.138 223.799 427.65 227.15C433.162 230.5 437.323 235.04 440.133 240.768C442.943 246.496 444.348 252.927 444.348 260.061ZM408.033 233.472C400.9 233.472 395.117 235.58 390.686 239.795C386.362 244.01 383.714 249.955 382.742 257.629H431.865C431 250.063 428.514 244.173 424.407 239.957C420.3 235.634 414.842 233.472 408.033 233.472Z" fill="white"/>
<path d="M507.261 222.124C511.152 222.124 514.124 222.664 516.178 223.745L513.584 236.391C510.99 234.986 507.585 234.283 503.37 234.283C499.911 234.283 496.507 235.31 493.156 237.363C489.914 239.309 487.212 242.335 485.05 246.442C482.997 250.441 481.97 255.305 481.97 261.033V304.806H469V223.745H479.538L481.321 237.039C485.861 227.096 494.507 222.124 507.261 222.124Z" fill="white"/>
<path d="M529.343 294.917L571.819 245.145L582.032 234.607L567.603 234.932H529.829V223.745H596.461V233.635L553.985 283.406L543.934 293.944L559.659 293.62H597.758V304.806H529.343V294.917Z" fill="white"/>
<path d="M661.664 222.124C673.012 222.124 681.983 225.907 688.576 233.472C695.277 240.93 698.628 251.198 698.628 264.276C698.628 277.354 695.277 287.675 688.576 295.241C681.983 302.699 673.012 306.428 661.664 306.428C655.395 306.428 649.775 305.023 644.803 302.213C639.939 299.294 636.319 295.457 633.941 290.702L633.13 304.806H621.782V186.457H634.751V236.391C637.345 232.067 640.966 228.609 645.614 226.015C650.369 223.421 655.719 222.124 661.664 222.124ZM660.205 295.079C668.095 295.079 674.309 292.323 678.849 286.811C683.388 281.191 685.658 273.679 685.658 264.276C685.658 254.873 683.388 247.415 678.849 241.903C674.309 236.283 668.095 233.472 660.205 233.472C652.423 233.472 646.208 236.174 641.561 241.579C637.021 246.983 634.751 254.224 634.751 263.303V265.249C634.751 274.327 637.021 281.569 641.561 286.973C646.208 292.377 652.423 295.079 660.205 295.079Z" fill="white"/>
<path d="M793.451 260.061C793.451 263.087 793.234 266.113 792.802 269.139H731.682C732.438 277.354 735.14 283.731 739.788 288.27C744.544 292.809 750.65 295.079 758.108 295.079C764.052 295.079 768.97 294.052 772.861 291.999C776.86 289.945 779.562 286.973 780.967 283.082L791.829 288.756C788.587 294.485 784.264 298.862 778.86 301.888C773.456 304.915 766.538 306.428 758.108 306.428C745.895 306.428 736.275 302.699 729.25 295.241C722.333 287.784 718.874 277.462 718.874 264.276C718.874 251.09 722.171 240.768 728.764 233.31C735.465 225.853 744.922 222.124 757.135 222.124C764.701 222.124 771.24 223.799 776.752 227.15C782.264 230.5 786.425 235.04 789.235 240.768C792.046 246.496 793.451 252.927 793.451 260.061ZM757.135 233.472C750.002 233.472 744.219 235.58 739.788 239.795C735.465 244.01 732.817 249.955 731.844 257.629H780.967C780.103 250.063 777.617 244.173 773.51 239.957C769.402 235.634 763.944 233.472 757.135 233.472Z" fill="white"/>
<path d="M856.363 222.124C860.254 222.124 863.226 222.664 865.28 223.745L862.686 236.391C860.092 234.986 856.687 234.283 852.472 234.283C849.014 234.283 845.609 235.31 842.258 237.363C839.016 239.309 836.314 242.335 834.152 246.442C832.099 250.441 831.072 255.305 831.072 261.033V304.806H818.102V223.745H828.64L830.423 237.039C834.963 227.096 843.609 222.124 856.363 222.124Z" fill="white"/>
<path d="M925.397 294.431C933.071 294.431 939.069 296.16 943.393 299.619C947.716 303.077 949.878 307.779 949.878 313.723C949.878 318.911 948.094 323.451 944.528 327.342C940.961 331.341 936.097 334.367 929.936 336.42C923.884 338.582 917.183 339.663 909.833 339.663C897.512 339.663 888.217 337.663 881.948 333.664C875.679 329.773 872.545 324.639 872.545 318.263C872.545 314.588 873.788 311.345 876.274 308.535C878.868 305.725 882.38 303.726 886.812 302.537C883.461 300.916 880.759 298.862 878.706 296.376C876.76 293.89 875.787 290.972 875.787 287.621C875.787 283.622 876.868 280.326 879.03 277.732C881.192 275.03 884.164 273.03 887.947 271.733C884.056 269.356 881.083 266.275 879.03 262.492C877.084 258.601 876.112 254.278 876.112 249.523C876.112 244.227 877.517 239.525 880.327 235.418C883.137 231.203 887.082 227.96 892.162 225.691C897.242 223.313 902.97 222.124 909.347 222.124C915.399 222.124 920.912 223.205 925.883 225.366C928.91 214.342 936.529 208.83 948.743 208.83L951.661 220.178C941.069 220.178 934.638 223.151 932.368 229.095C935.611 231.581 938.097 234.553 939.826 238.012C941.663 241.471 942.582 245.307 942.582 249.523C942.582 254.819 941.177 259.574 938.367 263.789C935.557 267.897 931.612 271.139 926.532 273.517C921.452 275.786 915.724 276.921 909.347 276.921C904.591 276.921 900.43 276.435 896.863 275.462C893.621 276.219 891.297 277.408 889.892 279.029C888.487 280.65 887.785 282.866 887.785 285.676C887.785 288.486 888.757 290.648 890.703 292.161C892.648 293.674 895.242 294.431 898.485 294.431H925.397ZM909.347 232.662C903.727 232.662 899.025 234.229 895.242 237.363C891.459 240.498 889.568 244.551 889.568 249.523C889.568 254.494 891.459 258.547 895.242 261.682C899.025 264.816 903.727 266.383 909.347 266.383C914.967 266.383 919.669 264.816 923.452 261.682C927.234 258.547 929.126 254.494 929.126 249.523C929.126 244.551 927.234 240.498 923.452 237.363C919.669 234.229 914.967 232.662 909.347 232.662ZM911.292 328.801C919.507 328.801 925.992 327.45 930.747 324.748C935.503 322.154 937.881 318.965 937.881 315.182C937.881 312.048 936.638 309.67 934.152 308.049C931.774 306.428 927.667 305.617 921.83 305.617H900.106C895.134 305.617 891.297 306.482 888.595 308.211C885.893 310.048 884.542 312.534 884.542 315.669C884.542 319.776 886.812 322.964 891.351 325.234C895.891 327.612 902.538 328.801 911.292 328.801Z" fill="white"/>
<path d="M290.856 73.9616C297.863 73.9616 303.325 75.7699 307.243 79.3863C311.236 83.0028 313.233 87.6741 313.233 93.4002C313.233 98.3729 311.877 102.63 309.164 106.171C306.527 109.637 303.137 111.558 298.993 111.935V112.048C303.74 112.198 307.582 114.007 310.521 117.472C313.534 120.863 315.041 125.044 315.041 130.017C315.041 134.086 313.986 137.702 311.877 140.866C309.767 143.956 306.829 146.404 303.062 148.212C299.37 149.945 295.151 150.812 290.404 150.812C283.924 150.812 278.537 149.305 274.243 146.291C270.024 143.277 267.01 138.945 265.202 133.294L270.4 130.469C273.037 140.565 279.818 145.613 290.743 145.613C296.243 145.613 300.688 144.144 304.079 141.206C307.469 138.267 309.164 134.387 309.164 129.565C309.164 124.743 307.62 121.051 304.531 118.49C301.517 115.928 297.034 114.647 291.082 114.647H286.9V109.448H291.082C296.356 109.448 300.387 108.092 303.175 105.38C305.962 102.667 307.356 98.9756 307.356 94.3043C307.356 89.4824 305.887 85.7529 302.949 83.1158C300.086 80.4788 296.055 79.1603 290.856 79.1603C286.26 79.1603 282.418 80.3281 279.328 82.6638C276.315 84.9241 274.243 88.0885 273.113 92.157L267.801 89.5577C269.534 84.7357 272.435 80.9309 276.503 78.1432C280.647 75.3555 285.431 73.9616 290.856 73.9616Z" fill="white"/>
<path d="M356.146 92.044C359.16 92.044 361.533 92.6844 363.266 93.9653L361.797 99.277C360.064 97.9208 357.653 97.2427 354.564 97.2427C351.701 97.2427 348.988 98.1468 346.427 99.9551C343.94 101.688 341.906 104.174 340.324 107.414C338.817 110.578 338.064 114.12 338.064 118.037V149.682H332.413V93.1742H337.159L337.838 104.702C339.42 100.709 341.755 97.6194 344.844 95.4345C348.009 93.1742 351.776 92.044 356.146 92.044Z" fill="white"/>
<path d="M421.075 67.1807V149.682H415.989L415.65 137.024C414.068 141.319 411.431 144.709 407.739 147.195C404.047 149.606 399.677 150.812 394.629 150.812C386.643 150.812 380.314 148.212 375.643 143.014C371.047 137.815 368.749 130.62 368.749 121.428C368.749 112.236 371.047 105.041 375.643 99.8421C380.314 94.6434 386.643 92.044 394.629 92.044C399.527 92.044 403.784 93.2118 407.4 95.5475C411.016 97.8831 413.691 101.085 415.424 105.154V67.1807H421.075ZM395.307 145.839C401.184 145.839 405.931 143.88 409.547 139.962C413.164 135.969 415.123 130.582 415.424 123.801V119.055C415.047 112.274 413.051 106.924 409.434 103.006C405.893 99.0133 401.184 97.0167 395.307 97.0167C388.753 97.0167 383.629 99.2016 379.937 103.572C376.246 107.866 374.4 113.818 374.4 121.428C374.4 129.038 376.246 135.027 379.937 139.397C383.629 143.692 388.753 145.839 395.307 145.839Z" fill="white"/>
<path d="M484.058 93.1742H503.948V98.0338H484.058V149.682H478.407V98.0338H467.105V93.1742H478.407V83.6809C478.407 78.4069 479.876 74.263 482.815 71.2493C485.753 68.1602 489.897 66.6157 495.246 66.6157C499.315 66.6157 502.366 67.6328 504.4 69.6671L502.818 74.1877C500.935 72.5301 498.561 71.7013 495.698 71.7013C492.006 71.7013 489.143 72.7938 487.109 74.9788C485.075 77.0884 484.058 80.1775 484.058 84.246V93.1742ZM520.336 136.007C520.336 139.473 520.863 141.921 521.918 143.353C523.048 144.784 524.894 145.5 527.455 145.5C528.962 145.5 530.243 145.387 531.298 145.161C532.353 144.935 533.558 144.521 534.914 143.918L534.123 149.343C532.014 150.322 529.527 150.812 526.664 150.812C522.596 150.812 519.582 149.682 517.623 147.421C515.664 145.086 514.685 141.469 514.685 136.572V67.1807H520.336V136.007Z" fill="white"/>
<path d="M568.811 92.044C577.174 92.044 583.729 94.681 588.476 99.9551C593.298 105.154 595.709 112.311 595.709 121.428C595.709 130.544 593.298 137.74 588.476 143.014C583.729 148.212 577.174 150.812 568.811 150.812C560.448 150.812 553.855 148.212 549.033 143.014C544.287 137.74 541.913 130.544 541.913 121.428C541.913 112.311 544.287 105.154 549.033 99.9551C553.855 94.681 560.448 92.044 568.811 92.044ZM568.811 96.9037C562.181 96.9037 556.982 99.0886 553.215 103.459C549.448 107.828 547.564 113.818 547.564 121.428C547.564 129.038 549.448 135.027 553.215 139.397C556.982 143.767 562.181 145.952 568.811 145.952C575.441 145.952 580.64 143.767 584.407 139.397C588.174 135.027 590.058 129.038 590.058 121.428C590.058 113.818 588.174 107.828 584.407 103.459C580.64 99.0886 575.441 96.9037 568.811 96.9037Z" fill="white"/>
<path d="M635.472 92.044C643.835 92.044 650.39 94.681 655.137 99.9551C659.959 105.154 662.37 112.311 662.37 121.428C662.37 130.544 659.959 137.74 655.137 143.014C650.39 148.212 643.835 150.812 635.472 150.812C627.109 150.812 620.516 148.212 615.695 143.014C610.948 137.74 608.575 130.544 608.575 121.428C608.575 112.311 610.948 105.154 615.695 99.9551C620.516 94.681 627.109 92.044 635.472 92.044ZM635.472 96.9037C628.842 96.9037 623.643 99.0886 619.876 103.459C616.109 107.828 614.225 113.818 614.225 121.428C614.225 129.038 616.109 135.027 619.876 139.397C623.643 143.767 628.842 145.952 635.472 145.952C642.102 145.952 647.301 143.767 651.068 139.397C654.835 135.027 656.719 129.038 656.719 121.428C656.719 113.818 654.835 107.828 651.068 103.459C647.301 99.0886 642.102 96.9037 635.472 96.9037Z" fill="white"/>
<path d="M702.585 92.044C705.599 92.044 707.972 92.6844 709.705 93.9653L708.236 99.277C706.503 97.9208 704.092 97.2427 701.003 97.2427C698.14 97.2427 695.428 98.1468 692.866 99.9551C690.38 101.688 688.346 104.174 686.763 107.414C685.256 110.578 684.503 114.12 684.503 118.037V149.682H678.852V93.1742H683.599L684.277 104.702C685.859 100.709 688.195 97.6194 691.284 95.4345C694.448 93.1742 698.215 92.044 702.585 92.044Z" fill="white"/>
<path d="M74.8409 90.8381V275.517" stroke="#E31936" stroke-width="10.8859"/>
<path d="M205.347 263.205V66.2142" stroke="#E31936" stroke-width="10.8859"/>
<path d="M92.6578 66.2142C117.868 134.042 132.003 172.071 157.213 239.899" stroke="white" stroke-width="5.44297"/>
<ellipse cx="141.325" cy="291.522" rx="49.2477" ry="16.0055" fill="#E31936"/>
<circle cx="157.213" cy="239.899" r="23.0554" fill="#FFCB13"/>
</svg>
