<svg width="295" height="295" viewBox="0 0 295 295" fill="none" xmlns="http://www.w3.org/2000/svg">
<path d="M147.499 0C66.0393 0 0 66.0391 0 147.501C0 228.966 66.0393 295 147.499 295C228.968 295 295 228.966 295 147.501C295 66.0444 228.968 0.00704545 147.497 0.00704545L147.499 0V0ZM215.141 212.739C212.499 217.072 206.828 218.445 202.495 215.786C167.864 194.632 124.267 189.841 72.9244 201.572C67.9768 202.699 63.0451 199.599 61.9178 194.649C60.7853 189.7 63.8729 184.768 68.8328 183.641C125.019 170.799 173.215 176.331 212.094 200.092C216.427 202.752 217.801 208.406 215.141 212.739V212.739ZM233.195 172.57C229.866 177.987 222.785 179.695 217.378 176.366C177.731 151.991 117.294 144.933 70.3986 159.168C64.3168 161.005 57.8932 157.578 56.0473 151.506C54.2155 145.424 57.6448 139.013 63.7161 137.163C117.283 120.909 183.878 128.783 229.408 156.762C234.815 160.091 236.524 167.172 233.195 172.572V172.57ZM234.745 130.748C187.207 102.512 108.775 99.9156 63.3868 113.691C56.0984 115.902 48.3908 111.787 46.1821 104.499C43.9734 97.2066 48.0843 89.5042 55.378 87.2884C107.48 71.4712 194.093 74.5272 248.825 107.019C255.395 110.91 257.544 119.377 253.651 125.924C249.776 132.48 241.286 134.641 234.752 130.748H234.745Z" fill="#1ED760"/>
</svg>
