<svg width="636" height="636" viewBox="0 0 636 636" fill="none" xmlns="http://www.w3.org/2000/svg">
<rect width="636" height="636" rx="318" fill="white"/>
<path d="M149.25 302.659V333.341C149.25 348.874 136.658 361.466 121.125 361.466C105.592 361.466 93 348.874 93 333.341V302.659C93 287.126 105.592 274.534 121.125 274.534C136.658 274.534 149.25 287.126 149.25 302.659Z" fill="#0066D9"/>
<path d="M486.761 303.458C486.754 303.192 486.75 302.925 486.75 302.659C486.75 287.126 499.342 274.534 514.875 274.534C530.408 274.534 543 287.126 543 302.659C543 302.926 542.996 303.193 542.989 303.458H543V334.14H542.989C542.567 349.303 530.141 361.465 514.875 361.465C499.609 361.465 487.184 349.303 486.761 334.14H486.75V303.458H486.761V303.458Z" fill="#4285F4"/>
<path d="M246.409 394.705V425.387C246.409 440.92 233.817 453.512 218.284 453.512C202.75 453.512 190.159 440.92 190.159 425.387V394.704C190.159 379.172 202.751 366.579 218.284 366.579C233.817 366.579 246.409 379.172 246.409 394.704V394.705ZM246.409 210.614V310.969H246.402C246.062 326.206 233.603 338.455 218.284 338.455C202.964 338.455 190.506 326.206 190.167 310.969H190.159V210.614C190.159 195.081 202.751 182.489 218.284 182.489C233.817 182.489 246.409 195.081 246.409 210.614V210.614Z" fill="#EA4335"/>
<path d="M389.591 241.295C389.591 256.828 402.183 269.42 417.716 269.42C433.25 269.42 445.841 256.828 445.841 241.295V210.614C445.841 195.081 433.249 182.489 417.716 182.489C402.183 182.489 389.591 195.081 389.591 210.614V241.295Z" fill="#34A853"/>
<path d="M289.875 151.808C289.875 167.34 302.467 179.933 318 179.933C333.533 179.933 346.125 167.34 346.125 151.808V121.125C346.125 105.592 333.533 93 318 93C302.467 93 289.875 105.592 289.875 121.125V151.808ZM289.875 484.192C289.875 468.66 302.467 456.067 318 456.067C333.533 456.067 346.125 468.66 346.125 484.192V514.875C346.125 530.408 333.533 543 318 543C302.467 543 289.875 530.408 289.875 514.875V484.192Z" fill="#FAB908"/>
<path d="M389.591 325.67C389.591 310.137 402.183 297.545 417.716 297.545C433.25 297.545 445.841 310.137 445.841 325.67V425.387C445.841 440.919 433.249 453.512 417.716 453.512C402.183 453.512 389.591 440.919 389.591 425.387V325.67Z" fill="#34A853"/>
<path d="M346.125 236.183V399.817C346.125 415.351 333.533 427.942 318 427.942C302.467 427.942 289.875 415.351 289.875 399.817V236.183C289.875 220.649 302.467 208.058 318 208.058C333.533 208.058 346.125 220.649 346.125 236.183Z" fill="#FAB908"/>
</svg>
